<svg width="25" height="25" viewBox="0 0 25 25" fill="none" xmlns="http://www.w3.org/2000/svg">
<path d="M12.5 8.75C10.4289 8.75 8.75 10.4289 8.75 12.5C8.75 14.5711 10.4289 16.25 12.5 16.25C14.5711 16.25 16.25 14.5711 16.25 12.5C16.25 10.4289 14.5711 8.75 12.5 8.75ZM12.5 6.25C15.9517 6.25 18.75 9.04825 18.75 12.5C18.75 15.9517 15.9517 18.75 12.5 18.75C9.04825 18.75 6.25 15.9517 6.25 12.5C6.25 9.04825 9.04825 6.25 12.5 6.25ZM20.625 5.9375C20.625 6.8005 19.9255 7.5 19.0625 7.5C18.1995 7.5 17.5 6.8005 17.5 5.9375C17.5 5.0745 18.1995 4.375 19.0625 4.375C19.9255 4.375 20.625 5.0745 20.625 5.9375ZM12.5 2.5C9.4075 2.5 8.9025 2.50875 7.46375 2.5725C6.48375 2.61875 5.82625 2.75 5.21625 2.9875C4.67375 3.1975 4.2825 3.44875 3.86625 3.86625C3.475 4.24425 3.17425 4.70575 2.98625 5.21625C2.74875 5.82875 2.6175 6.485 2.5725 7.46375C2.5075 8.84375 2.5 9.32625 2.5 12.5C2.5 15.5925 2.50875 16.0975 2.5725 17.5363C2.61875 18.515 2.75 19.1738 2.98625 19.7825C3.19875 20.3263 3.44875 20.7175 3.86375 21.1325C4.285 21.5525 4.67625 21.8037 5.21375 22.0112C5.83125 22.25 6.48875 22.3825 7.46375 22.4275C8.84375 22.4925 9.32625 22.5 12.5 22.5C15.5925 22.5 16.0975 22.4912 17.5363 22.4275C18.5138 22.3812 19.1725 22.25 19.7825 22.0138C20.3238 21.8025 20.7175 21.5513 21.1325 21.1363C21.5538 20.715 21.805 20.3238 22.0125 19.7863C22.25 19.17 22.3825 18.5113 22.4275 17.5363C22.4925 16.1563 22.5 15.6738 22.5 12.5C22.5 9.4075 22.4912 8.9025 22.4275 7.46375C22.3812 6.48625 22.25 5.82625 22.0125 5.21625C21.8241 4.70625 21.5239 4.245 21.1337 3.86625C20.7559 3.47475 20.2944 3.174 19.7837 2.98625C19.1712 2.74875 18.5138 2.6175 17.5363 2.5725C16.1563 2.5075 15.6738 2.5 12.5 2.5ZM12.5 0C15.8963 0 16.32 0.0125 17.6525 0.075C18.9837 0.1375 19.89 0.34625 20.6875 0.65625C21.5125 0.97375 22.2075 1.40375 22.9025 2.0975C23.5381 2.72237 24.03 3.47825 24.3438 4.3125C24.6525 5.10875 24.8625 6.01625 24.925 7.3475C24.9838 8.68 25 9.10375 25 12.5C25 15.8963 24.9875 16.32 24.925 17.6525C24.8625 18.9837 24.6525 19.89 24.3438 20.6875C24.0309 21.5222 23.5389 22.2783 22.9025 22.9025C22.2775 23.5379 21.5216 24.0298 20.6875 24.3438C19.8912 24.6525 18.9837 24.8625 17.6525 24.925C16.32 24.9838 15.8963 25 12.5 25C9.10375 25 8.68 24.9875 7.3475 24.925C6.01625 24.8625 5.11 24.6525 4.3125 24.3438C3.47788 24.0306 2.72187 23.5386 2.0975 22.9025C1.46175 22.2778 0.969875 21.5219 0.65625 20.6875C0.34625 19.8912 0.1375 18.9837 0.075 17.6525C0.01625 16.32 0 15.8963 0 12.5C0 9.10375 0.0125 8.68 0.075 7.3475C0.1375 6.015 0.34625 5.11 0.65625 4.3125C0.969 3.47775 1.461 2.72162 2.0975 2.0975C2.72212 1.4615 3.478 0.969625 4.3125 0.65625C5.11 0.34625 6.015 0.1375 7.3475 0.075C8.68 0.01625 9.10375 0 12.5 0Z" fill="#080808"/>
</svg>
