<svg width="25" height="25" viewBox="0 0 25 25" fill="none" xmlns="http://www.w3.org/2000/svg">
<path d="M6.56626 20.6175L7.47126 21.1462C8.99739 22.0364 10.7333 22.5036 12.5 22.5C18.0229 22.5 22.5 18.0229 22.5 12.5C22.5 6.97712 18.0229 2.5 12.5 2.5C6.97714 2.5 2.50002 6.97712 2.50002 12.5C2.50002 14.295 2.97126 16.0162 3.85501 17.53L4.38251 18.435L3.56626 21.4362L6.56626 20.6175ZM0.00501674 25L1.69502 18.79C0.581516 16.8811 -0.00360826 14.71 1.67414e-05 12.5C1.67414e-05 5.59625 5.59626 0 12.5 0C19.4038 0 25 5.59625 25 12.5C25 19.4037 19.4038 25 12.5 25C10.291 25.0036 8.12089 24.419 6.21251 23.3062L0.00501674 25ZM7.98876 6.635C8.15626 6.6225 8.32501 6.6225 8.49251 6.63C8.56001 6.635 8.62751 6.6425 8.69501 6.65C8.89376 6.6725 9.11251 6.79375 9.18626 6.96125C9.55876 7.80624 9.92126 8.65749 10.2713 9.51124C10.3488 9.70124 10.3025 9.94499 10.155 10.1825C10.0535 10.3431 9.94389 10.4982 9.82626 10.6475C9.68501 10.8287 9.38126 11.1612 9.38126 11.1612C9.38126 11.1612 9.25751 11.3087 9.30501 11.4925C9.32251 11.5625 9.38001 11.6637 9.43251 11.7487L9.50626 11.8675C9.82626 12.4012 10.2563 12.9425 10.7813 13.4525C10.9313 13.5975 11.0775 13.7462 11.235 13.885C11.82 14.4012 12.4825 14.8225 13.1975 15.135L13.2038 15.1375C13.31 15.1837 13.3638 15.2087 13.5188 15.275C13.5963 15.3075 13.6763 15.3362 13.7575 15.3575C13.9293 15.4012 14.1104 15.3371 14.2163 15.195C15.1213 14.0987 15.2038 14.0275 15.2113 14.0275V14.03C15.3385 13.9114 15.5108 13.8535 15.6838 13.8712C15.7588 13.8762 15.835 13.89 15.905 13.9212C16.5688 14.225 17.655 14.6987 17.655 14.6987L18.3825 15.025C18.505 15.0837 18.6163 15.2225 18.62 15.3562C18.625 15.44 18.6325 15.575 18.6038 15.8225C18.5638 16.1462 18.4663 16.535 18.3688 16.7387C18.302 16.8777 18.2134 17.0052 18.1063 17.1162C17.9801 17.2486 17.842 17.3692 17.6938 17.4762C17.6425 17.5149 17.5904 17.5524 17.5375 17.5887C17.382 17.6874 17.2223 17.7791 17.0588 17.8637C16.7369 18.0347 16.3815 18.1329 16.0175 18.1512C15.7863 18.1637 15.555 18.1812 15.3225 18.1687C15.3125 18.1687 14.6125 18.06 14.6125 18.06C12.8354 17.5925 11.1918 16.7169 9.81251 15.5025C9.53001 15.2537 9.26876 14.9862 9.00126 14.72C7.88876 13.6137 7.04876 12.42 6.53876 11.2925C6.27776 10.7391 6.13676 10.1367 6.12501 9.52499C6.11989 8.76612 6.36789 8.02712 6.83001 7.425C6.92126 7.3075 7.00751 7.185 7.15626 7.04375C7.31501 6.89375 7.41501 6.81375 7.52376 6.75875C7.66839 6.68625 7.82614 6.64375 7.98751 6.63375L7.98876 6.635Z" fill="white"/>
</svg>
