<svg width="31" height="30" viewBox="0 0 31 30" fill="none" xmlns="http://www.w3.org/2000/svg">
<path d="M29.0928 8.6482C26.6127 3.53028 21.374 0 15.3045 0C11.079 0 7.25286 1.7109 4.48188 4.48188L8.81338 8.81338C10.475 7.15178 12.7726 6.12376 15.3069 6.12376C20.3755 6.12376 24.4901 10.2358 24.4901 15.3069V17.7549C24.3989 17.6835 24.3077 17.6169 24.2115 17.5503C21.7019 15.7507 18.6277 14.6931 15.3069 14.6931C15.1048 14.6931 14.9051 14.6955 14.7079 14.7054C11.6164 14.8237 8.75914 15.8591 6.40233 17.5454C4.53858 18.884 2.98299 20.627 1.87854 22.651C0.680417 24.8352 0 27.335 0 30H6.12129C6.12129 29.2259 6.21497 28.4715 6.39987 27.7566C6.91758 25.6882 8.13789 23.896 9.79456 22.6535C11.3304 21.4997 13.2386 20.8168 15.3045 20.8168C17.3704 20.8168 19.2785 21.4997 20.8144 22.6535C22.4686 23.896 23.6913 25.6833 24.2091 27.7541C24.3915 28.474 24.4876 29.2259 24.4876 30H30.6089V15.3045C30.6089 12.9156 30.0641 10.6599 29.0903 8.64574L29.0928 8.6482Z" fill="#080808"/>
</svg>
