<svg width="173" height="30" viewBox="0 0 173 30" fill="none" xmlns="http://www.w3.org/2000/svg">
<path d="M10.7133 4.28497C8.30074 4.28497 6.07628 5.08226 4.28497 6.42832V4.71468H0V30H4.28497V23.5717C6.07628 24.916 8.30074 25.715 10.7133 25.715C16.6308 25.715 21.4266 20.9175 21.4266 15.0017C21.4266 9.08594 16.6308 4.28497 10.7133 4.28497ZM10.7133 21.4283C7.16348 21.4283 4.28497 18.5498 4.28497 15C4.28497 11.4502 7.16348 8.57167 10.7133 8.57167C14.2631 8.57167 17.1416 11.4502 17.1416 15C17.1416 18.5498 14.2631 21.4283 10.7133 21.4283Z" fill="#080808"/>
<path d="M114.642 6.42832C112.85 5.08399 110.626 4.28497 108.213 4.28497C102.296 4.28497 97.5 9.08249 97.5 14.9983C97.5 20.9141 102.298 25.7116 108.213 25.7116C110.626 25.7116 112.85 24.9143 114.642 23.5682V25.2819H118.927V0H114.642V6.42832ZM108.213 21.4283C104.663 21.4283 101.785 18.5498 101.785 15C101.785 11.4502 104.663 8.57167 108.213 8.57167C111.763 8.57167 114.642 11.4502 114.642 15C114.642 18.5498 111.763 21.4283 108.213 21.4283Z" fill="#080808"/>
<path d="M24.6434 25.2853H28.9283V15C28.9283 11.4502 31.8068 8.57167 35.3567 8.57167V4.28497C32.9441 4.28497 30.7196 5.08053 28.9283 6.42487C26.3242 8.37839 24.6434 11.4933 24.6434 14.9983V25.2853Z" fill="#080808"/>
<path d="M66.4283 15V0H62.1434V15C62.1434 18.5049 63.8259 21.6199 66.4283 23.5734C68.2196 24.9195 70.4441 25.7133 72.8566 25.7133V21.4283C69.3068 21.4283 66.4283 18.5498 66.4283 15Z" fill="#080808"/>
<path d="M171.509 10.3405C169.773 6.75794 166.104 4.2867 161.857 4.2867C158.898 4.2867 156.22 5.48435 154.28 7.42407L157.312 10.4562C158.475 9.29303 160.083 8.5734 161.857 8.5734C165.406 8.5734 168.286 11.4519 168.286 15.0017V16.7154C168.222 16.6653 168.158 16.6187 168.091 16.5721C166.334 15.3124 164.182 14.572 161.857 14.572C161.716 14.572 161.576 14.5737 161.438 14.5806C159.274 14.6635 157.274 15.3883 155.624 16.5687C154.319 17.5058 153.231 18.7258 152.457 20.1427C151.619 21.6699 151.144 23.4215 151.144 25.2853H155.429C155.429 24.7434 155.495 24.2154 155.624 23.7149C155.987 22.267 156.841 21.0124 158 20.1427C159.076 19.335 160.411 18.857 161.857 18.857C163.304 18.857 164.639 19.335 165.714 20.1427C166.872 21.0124 167.728 22.2636 168.091 23.7132C168.218 24.2171 168.286 24.7434 168.286 25.2853H172.571V15C172.571 13.3278 172.189 11.7487 171.508 10.3388L171.509 10.3405Z" fill="#080808"/>
<path d="M141.427 8.57167C143.201 8.57167 144.807 9.2913 145.972 10.4544L149.003 7.42407C147.066 5.48435 144.386 4.28497 141.428 4.28497C135.509 4.28497 130.715 9.08076 130.715 14.9983C130.715 20.9158 135.511 25.7116 141.428 25.7116C144.386 25.7116 147.065 24.5122 149.003 22.5725L145.972 19.5421C144.809 20.7052 143.201 21.4249 141.427 21.4249C137.877 21.4249 134.998 18.5446 134.998 14.9965C134.998 11.4485 137.877 8.56822 141.427 8.56822V8.57167Z" fill="#080808"/>
<path d="M55.7892 7.42579C53.853 5.48608 51.1729 4.2867 48.215 4.2867C42.8446 4.2867 38.3974 8.23861 37.6208 13.3934C37.5414 13.918 37.5 14.4547 37.5 15C37.5 15.5453 37.5414 16.082 37.6208 16.6066C38.3957 21.7597 42.8446 25.7133 48.215 25.7133C51.1729 25.7133 53.8512 24.5139 55.7892 22.5742L52.7589 19.5438C51.5957 20.707 49.9873 21.4266 48.2133 21.4266C45.2174 21.4266 42.7013 19.3782 41.9886 16.6049H58.8075C58.8869 16.0803 58.9283 15.5436 58.9283 14.9983C58.9283 14.4529 58.8869 13.9162 58.8075 13.3916C58.4607 11.0774 57.37 9.00483 55.7875 7.42407L55.7892 7.42579ZM49.8217 13.3934H41.9903C42.7013 10.6201 45.2192 8.57167 48.215 8.57167C49.9891 8.57167 51.5957 9.2913 52.7606 10.4544C53.5596 11.2535 54.1515 12.263 54.4414 13.3916H49.8234L49.8217 13.3934Z" fill="#080808"/>
<path d="M89.9983 8.05396V16.0717C89.9983 19.0313 87.6012 21.4283 84.6416 21.4283C81.682 21.4283 79.285 19.0313 79.285 16.0717V4.71468H75V16.0717C75 18.3669 75.8007 20.4723 77.1433 22.129C78.9088 24.3172 81.613 25.7133 84.6434 25.7133C89.9689 25.7133 94.2867 21.3955 94.2867 16.0699V4.71468H90.0017V8.05396H89.9983Z" fill="#080808"/>
<path d="M127.498 8.57167H123.213V25.2853H127.498V8.57167Z" fill="#080808"/>
<path d="M125.355 4.71468C126.657 4.71468 127.712 3.65926 127.712 2.35734C127.712 1.05542 126.657 0 125.355 0C124.053 0 122.998 1.05542 122.998 2.35734C122.998 3.65926 124.053 4.71468 125.355 4.71468Z" fill="#080808"/>
</svg>
